#!OML:ASF H:\Terrain\Patient Classification 1\Terrain2\Thursday\justin.ASF
:FULLY-SPECIFIED
:DEGREES
2207
root -8.74586 17.3271 21.5612 900.824 -65.9179 -539.311
lowerback 5.72115 -0.283768 -1.93875
upperback 2.01748 -0.520227 2.76015
thorax -1.08667 -0.304385 3.97236
lowerneck -9.75921 -3.85663 -12.1584
upperneck 37.677 -8.57421 7.78261
head 15.8454 -5.22216 3.89809
rclavicle 5.2181e-014 -1.66979e-014
rhumerus -33.8789 -8.98849 -77.6365
rradius 37.1666
rwrist -12.298
rhand -18.9117 14.7895
rfingers 7.12502
rthumb 7.3904 -15.0615
lclavicle 5.2181e-014 -1.66979e-014
lhumerus -32.7989 10.7068 75.9247
lradius 40.96
lwrist 10.498
lhand -23.1447 21.9267
lfingers 7.12502
lthumb 3.30333 51.8808
rfemur -17.7678 -15.1602 24.5408
rtibia 43.8031
rfoot -24.5493 -8.86004
rtoes 19.3512
lfemur -16.5292 6.26267 -18.7358
ltibia 36.7385
lfoot -17.8609 -4.64748
ltoes 13.8871
2208
root -8.76333 17.3229 21.5463 900.626 -65.1256 -539.079
lowerback 5.81114 -0.32697 -1.87981
upperback 2.07258 -0.579869 2.82482
thorax -1.07499 -0.337367 4.01085
lowerneck -10.0918 -4.03992 -12.3837
upperneck 37.8968 -8.88672 7.9066
head 16.112 -5.37804 3.93377
rclavicle 8.29926e-014 -2.3059e-014
rhumerus -33.6653 -8.91312 -77.6119
rradius 37.2776
rwrist -12.5956
rhand -18.6582 14.5304
rfingers 7.12502
rthumb 7.63503 -15.3118
lclavicle 8.29926e-014 -2.3059e-014
lhumerus -32.9854 10.8859 76.0136
lradius 40.3252
lwrist 10.344
lhand -23.0926 21.6523
lfingers 7.12502
lthumb 3.35363 51.6057
rfemur -17.6949 -14.7028 24.6447
rtibia 43.7927
rfoot -24.7516 -8.52342
rtoes 18.5283
lfemur -16.3481 6.26436 -18.5986
ltibia 36.7585
lfoot -18.1662 -3.9591
ltoes 14.2395
2209
root -8.78131 17.3234 21.5301 900.843 -64.3461 -539.284
lowerback 5.91037 -0.304917 -1.92221
upperback 2.05089 -0.552898 2.73641
thorax -1.15539 -0.321411 3.94266
lowerneck -10.1549 -4.23388 -12.688
upperneck 38.0711 -9.41202 8.41568
head 16.3588 -5.60282 4.12174
rclavicle 7.61345e-014 -1.27222e-014
rhumerus -33.7376 -9.20718 -77.5758
rradius 37.5608
rwrist -12.6646
rhand -18.9349 14.4469
rfingers 7.12502
rthumb 7.36794 -15.4048
lclavicle 7.61345e-014 -1.27222e-014
lhumerus -33.2125 10.4467 76.0879
lradius 39.6846
lwrist 10.027
lhand -22.7834 21.8289
lfingers 7.12502
lthumb 3.65231 51.7774
rfemur -17.6228 -14.3175 24.5549
rtibia 43.7259
rfoot -24.7818 -8.00928
rtoes 17.8046
lfemur -16.21 6.2627 -18.654
ltibia 36.8485
lfoot -18.4126 -3.2071
ltoes 13.0408
2210
root -8.80091 17.3223 21.5146 901.146 -63.6085 -539.556
lowerback 5.93899 -0.278976 -1.98485
upperback 2.02532 -0.520808 2.63672
thorax -1.20073 -0.303021 3.8729
lowerneck -9.94848 -4.35596 -13.0035
upperneck 38.0402 -9.87318 9.03915
head 16.4366 -5.7915 4.37721
rclavicle 2.43511e-014 1.35174e-014
rhumerus -33.8208 -9.3024 -77.5723
rradius 37.7939
rwrist -12.7363
rhand -19.4519 14.5517
rfingers 7.12502
rthumb 6.86893 -15.3169
lclavicle 2.43511e-014 1.35174e-014
lhumerus -33.3178 9.76191 76.2716
lradius 39.0272
lwrist 10.3398
lhand -22.5746 22.5567
lfingers 7.12502
lthumb 3.85387 52.5016
rfemur -17.5717 -14.0481 24.402
rtibia 43.5882
rfoot -24.752 -7.41512
rtoes 17.6687
lfemur -16.1591 6.47309 -18.7425
ltibia 37.0121
lfoot -18.575 -2.79342
ltoes 12.5628
2211
root -8.81961 17.3178 21.4976 900.635 -62.8701 -538.867
lowerback 5.93909 -0.341672 -1.81968
upperback 1.96285 -0.594855 2.81409
thorax -1.25888 -0.339995 3.96935
lowerneck -9.73457 -4.35527 -13.2425
upperneck 38.0232 -10.0185 9.31481
head 16.4371 -5.87885 4.51983
rclavicle 4.33351e-014 -1.82882e-014
rhumerus -33.8485 -8.87779 -77.5115
rradius 37.9754
rwrist -12.9058
rhand -19.6461 14.2501
rfingers 7.12502
rthumb 6.68144 -15.6245
lclavicle 4.33351e-014 -1.82882e-014
lhumerus -33.5974 9.59257 76.5141
lradius 38.3882
lwrist 10.7423
lhand -22.6084 22.9417
lfingers 7.12502
lthumb 3.82124 52.8872
rfemur -17.4964 -13.7308 24.7513
rtibia 43.4264
rfoot -24.754 -6.72326
rtoes 18.6693
lfemur -16.2136 6.9218 -18.3442
ltibia 37.2162
lfoot -18.723 -2.55509
ltoes 12.7576
2212
root -8.83563 17.304 21.4731 900.124 -62.0631 -538.149
lowerback 5.90311 -0.413938 -1.79933
upperback 1.86811 -0.688577 3.07103
thorax -1.32556 -0.38686 4.23229
lowerneck -9.43398 -4.39813 -12.9108
upperneck 37.9666 -10.0389 8.77009
head 16.2693 -5.92273 4.20989
rclavicle 2.88238e-014 -4.13472e-014
rhumerus -33.938 -8.40398 -77.4133
rradius 38.2002
rwrist -13.2681
rhand -19.9832 14.2538
rfingers 7.12502
rthumb 6.35607 -15.6309
lclavicle 2.88238e-014 -4.13472e-014
lhumerus -34.1085 9.77324 76.7222
lradius 37.8622
lwrist 10.7622
lhand -22.2426 22.7121
lfingers 7.12502
lthumb 4.17448 52.6509
rfemur -17.337 -13.299 25.1872
rtibia 43.2852
rfoot -24.6955 -5.99684
rtoes 20.3267
lfemur -16.2976 7.48515 -17.9096
ltibia 37.4613
lfoot -18.8612 -2.0758
ltoes 10.4544
2213
root -8.85456 17.2881 21.4474 900.272 -61.2722 -538.267
lowerback 5.78935 -0.430432 -1.9238
upperback 1.875 -0.716638 3.04201
thorax -1.25139 -0.401776 4.27268
lowerneck -8.93113 -4.58623 -11.962
upperneck 37.6109 -10.2407 7.8625
head 15.855 -5.98688 3.60249
rclavicle 9.74045e-015 -9.54166e-015
rhumerus -33.9682 -8.54589 -77.4199
rradius 38.2491
rwrist -13.2276
rhand -20.4854 14.848
rfingers 7.12502
rthumb 5.8712 -15.0506
lclavicle 9.74045e-015 -9.54166e-015
lhumerus -34.3756 9.54518 76.9054
lradius 37.202
lwrist 10.4954
lhand -21.8213 22.5214
lfingers 7.12502
lthumb 4.58136 52.4518
rfemur -17.1275 -12.8744 25.1446
rtibia 43.1816
rfoot -24.6542 -5.37328
rtoes 20.8883
lfemur -16.2316 7.81553 -17.9158
ltibia 37.6974
lfoot -19.0641 -1.42703
ltoes 7.67094
